<!DOCTYPE svg PUBLIC "-//W3C//DTD SVG 1.1//EN" "http://www.w3.org/Graphics/SVG/1.1/DTD/svg11.dtd">
<!-- Uploaded to: SVG Repo, www.svgrepo.com, Transformed by: SVG Repo Mixer Tools -->
<svg fill="#f31212" height="800px" width="800px" version="1.1" id="Capa_1" xmlns="http://www.w3.org/2000/svg" xmlns:xlink="http://www.w3.org/1999/xlink" viewBox="0 0 297 297" xml:space="preserve" stroke="#f31212">
<g id="SVGRepo_bgCarrier" stroke-width="0"/>
<g id="SVGRepo_tracerCarrier" stroke-linecap="round" stroke-linejoin="round"/>
<g id="SVGRepo_iconCarrier"> <g> <path d="M123.152,94.766c5.052,0,9.146-4.095,9.146-9.146V63.141c0-5.051-4.095-9.146-9.146-9.146 c-5.052,0-9.146,4.096-9.146,9.146v22.479C114.006,90.671,118.101,94.766,123.152,94.766z"/> <path d="M173.848,94.766c5.052,0,9.146-4.095,9.146-9.146V63.141c0-5.051-4.095-9.146-9.146-9.146 c-5.052,0-9.146,4.096-9.146,9.146v22.479C164.701,90.671,168.796,94.766,173.848,94.766z"/> <path d="M148.5,82.092c5.052,0,9.146-4.094,9.146-9.146V50.467c0-5.051-4.095-9.146-9.146-9.146s-9.146,4.095-9.146,9.146v22.479 C139.354,77.998,143.448,82.092,148.5,82.092z"/> <path d="M207.951,168.698c0-5.052-4.095-9.146-9.146-9.146h-28.977c20.802-8.454,35.514-28.872,35.514-52.675 c0-5.051-4.095-9.146-9.146-9.146h-95.392c-5.052,0-9.146,4.096-9.146,9.146c0,23.803,14.712,44.221,35.515,52.675H98.195 c-5.052,0-9.146,4.095-9.146,9.146c0,5.052,4.095,9.146,9.146,9.146h100.609C203.856,177.845,207.951,173.75,207.951,168.698z M111.046,116.023h74.907c-4.116,16.856-19.347,29.403-37.453,29.403S115.163,132.88,111.046,116.023z"/> <path d="M212.854,214.902c30.736-33.164,46.927-68.832,46.927-103.623C259.78,49.92,209.86,0,148.5,0S37.221,49.92,37.221,111.279 c0,34.791,16.189,70.459,46.926,103.623c-29.075,5.182-63.187,16.03-63.187,38.398c0,14.305,14.047,25.57,41.75,33.486 C85.763,293.373,116.229,297,148.5,297s62.737-3.627,85.79-10.213c27.703-7.916,41.75-19.182,41.75-33.486 C276.04,230.933,241.929,220.084,212.854,214.902z M148.5,20.325c50.152,0,90.955,40.802,90.955,90.954 c0,66.844-71.026,118.283-90.955,131.396c-19.929-13.113-90.954-64.553-90.954-131.396C57.546,61.127,98.348,20.325,148.5,20.325z M226.695,267.804c-21.063,5.72-48.832,8.871-78.195,8.871s-57.133-3.151-78.195-8.871c-22.998-6.247-28.743-13.067-29.023-14.453 c0.009-0.042,1.443-4.532,15.606-10.159c11.487-4.565,27.158-8.174,45.43-10.483c21.482,19.221,40.135,30.226,41.051,30.763 c1.585,0.927,3.358,1.391,5.132,1.391s3.547-0.464,5.132-1.391c0.916-0.537,19.568-11.542,41.051-30.763 c18.271,2.31,33.941,5.918,45.429,10.483c14.076,5.592,15.581,10.061,15.607,10.061h0.001 C255.438,254.737,249.692,261.557,226.695,267.804z"/> </g> </g>
</svg>